<svg width="20" height="20" viewBox="0 0 20 20" fill="none" xmlns="http://www.w3.org/2000/svg">
<g id="cog">
<path id="Vector" d="M8.42496 3.25041C8.46756 2.82441 8.82603 2.5 9.25416 2.5H10.7458C11.174 2.5 11.5324 2.82441 11.575 3.25041L11.6027 3.52724C12.26 3.68946 12.8789 3.94917 13.4432 4.29017L13.659 4.11359C13.9903 3.84249 14.4732 3.86657 14.7759 4.1693L15.8307 5.22408C16.1335 5.52682 16.1575 6.00969 15.8864 6.34104L15.7099 6.55686C16.0508 7.12111 16.3105 7.73999 16.4728 8.39727L16.7496 8.42496C17.1756 8.46756 17.5 8.82603 17.5 9.25415V10.7458C17.5 11.174 17.1756 11.5324 16.7496 11.575L16.4728 11.6027C16.3105 12.26 16.0508 12.8789 15.7098 13.4432L15.8864 13.659C16.1575 13.9903 16.1334 14.4732 15.8307 14.7759L14.7759 15.8307C14.4732 16.1335 13.9903 16.1575 13.659 15.8864L13.4431 15.7099C12.8789 16.0508 12.26 16.3105 11.6027 16.4728L11.575 16.7496C11.5324 17.1756 11.174 17.5 10.7458 17.5H9.25416C8.82603 17.5 8.46756 17.1756 8.42496 16.7496L8.39728 16.4728C7.73999 16.3105 7.12111 16.0508 6.55685 15.7098L6.34107 15.8864C6.00972 16.1575 5.52685 16.1334 5.22412 15.8307L4.16934 14.7759C3.86661 14.4732 3.84252 13.9903 4.11363 13.659L4.29017 13.4432C3.94917 12.8789 3.68946 12.26 3.52724 11.6027L3.25041 11.575C2.82441 11.5324 2.5 11.174 2.5 10.7458V9.25416C2.5 8.82603 2.82441 8.46756 3.25041 8.42496L3.52724 8.39728C3.68945 7.73999 3.94916 7.12111 4.29015 6.55685L4.1136 6.34107C3.8425 6.00972 3.86658 5.52685 4.16931 5.22412L5.22409 4.16934C5.52682 3.86661 6.0097 3.84252 6.34105 4.11363L6.55682 4.29017C7.12108 3.94917 7.73998 3.68946 8.39728 3.52724L8.42496 3.25041Z" stroke="#020617" stroke-width="1.5" stroke-miterlimit="1" stroke-linecap="round" stroke-linejoin="round"/>
<circle id="Vector_2" cx="2.08333" cy="2.08333" r="2.08333" transform="matrix(1 0 0 -1 7.91699 12.0835)" stroke="#020617" stroke-width="1.5" stroke-miterlimit="1" stroke-linecap="round" stroke-linejoin="round"/>
</g>
</svg>
