<svg width="20" height="20" viewBox="0 0 20 20" fill="none" xmlns="http://www.w3.org/2000/svg">
<g id="scissors">
<path id="Vector" d="M9.82456 10L5.83333 7.37903M17.5 4.95968L5.83333 12.621M6.66667 5.76613C6.66667 6.87961 5.73393 7.78226 4.58333 7.78226C3.43274 7.78226 2.5 6.87961 2.5 5.76613C2.5 4.65265 3.43274 3.75 4.58333 3.75C5.73393 3.75 6.66667 4.65265 6.66667 5.76613ZM6.66667 14.2339C6.66667 13.1204 5.73393 12.2177 4.58333 12.2177C3.43274 12.2177 2.5 13.1204 2.5 14.2339C2.5 15.3473 3.43274 16.25 4.58333 16.25C5.73393 16.25 6.66667 15.3473 6.66667 14.2339Z" stroke="#020617" stroke-width="1.5" stroke-linecap="round" stroke-linejoin="round"/>
<path id="Vector_2" d="M17.5004 15.0403L12.4453 11.7207" stroke="#020617" stroke-width="1.5" stroke-linecap="round" stroke-linejoin="round"/>
</g>
</svg>
