<svg width="20" height="20" viewBox="0 0 20 20" fill="none" xmlns="http://www.w3.org/2000/svg">
<g id="paint">
<path id="Vector" d="M13.75 4.58333H14.5833C15.5038 4.58333 16.25 4.91286 16.25 5.83333V7.5C16.25 8.42047 15.5038 9.16667 14.5833 9.16667H8.75C8.28976 9.16667 7.91667 9.53976 7.91667 10V16.6667C7.91667 17.1269 8.28976 17.5 8.75 17.5H9.58333M13.75 4.58333V3.33333C13.75 2.8731 13.3769 2.5 12.9167 2.5H4.58333C4.1231 2.5 3.75 2.8731 3.75 3.33333V5.83333C3.75 6.29357 4.1231 6.66667 4.58333 6.66667H12.9167C13.3769 6.66667 13.75 6.29357 13.75 5.83333V4.58333Z" stroke="#020617" stroke-width="1.5" stroke-linecap="round" stroke-linejoin="round"/>
</g>
</svg>
