<svg width="20" height="20" viewBox="0 0 20 20" fill="none" xmlns="http://www.w3.org/2000/svg">
<g id="wrench">
<path id="Vector" d="M8.26453 5.89673C8.40914 6.04426 8.49015 6.24262 8.49015 6.44921C8.49015 6.65581 8.40914 6.85416 8.26453 7.0017L7.0017 8.26453C6.85416 8.40914 6.65581 8.49015 6.44921 8.49015C6.24262 8.49015 6.04426 8.40914 5.89672 8.26453L3.77301 6.14081C3.36117 5.72897 2.66757 5.86358 2.56872 6.43756C2.47501 6.98163 2.47663 7.54099 2.5767 8.09021C2.74926 9.03727 3.20634 9.90924 3.88703 10.5899C4.56772 11.2706 5.43969 11.7277 6.38675 11.9003C6.95313 12.0035 7.53028 12.002 8.09034 11.8992C8.77266 11.774 9.51268 11.8805 10.0032 12.371L14.6418 17.0096C14.9558 17.3236 15.3817 17.5 15.8257 17.5C16.2698 17.5 16.6956 17.3236 17.0096 17.0096C17.3236 16.6956 17.5 16.2698 17.5 15.8257C17.5 15.3817 17.3236 14.9558 17.0096 14.6418L12.371 10.0032C11.8805 9.51268 11.774 8.77266 11.8992 8.09034C12.002 7.53028 12.0035 6.95313 11.9003 6.38675C11.7277 5.43969 11.2706 4.56772 10.5899 3.88703C9.90924 3.20634 9.03727 2.74926 8.09021 2.5767C7.54099 2.47663 6.98163 2.47501 6.43756 2.56872C5.86358 2.66757 5.72897 3.36117 6.14081 3.77301L8.26453 5.89673Z" stroke="#020617" stroke-width="1.5" stroke-linecap="round" stroke-linejoin="round"/>
</g>
</svg>
