<svg width="20" height="20" viewBox="0 0 20 20" fill="none" xmlns="http://www.w3.org/2000/svg">
<g id="swatches">
<path id="Vector" d="M5.41667 17.5H15C16.3807 17.5 17.5 16.3348 17.5 14.8974C17.5 13.8073 17.6081 12.706 16.4195 12.1869M6.65039 17.2194L15.2227 13.3285C15.7531 13.0878 16.163 12.6784 16.4195 12.1869M10.0747 9.03104L12.5855 7.59917C13.8797 6.86113 15.5032 7.44451 16.0845 8.85649L16.5214 9.9177C16.8349 10.6793 16.7724 11.5108 16.4195 12.1869M8.23485 15.2848C7.81794 16.8785 6.21862 17.8243 4.66268 17.3973C3.10674 16.9702 2.18318 15.3322 2.60009 13.7385L5.14934 4.39234C5.52692 3.00805 6.91195 2.20548 8.24107 2.60081L9.217 2.89109C10.5624 3.29124 11.3303 4.76289 10.9206 6.15563L8.23485 15.2848Z" stroke="#020617" stroke-width="1.5" stroke-linecap="round" stroke-linejoin="round"/>
<path id="Vector_2" d="M5.41697 14.1665L5.21489 14.8782" stroke="#020617" stroke-width="1.5" stroke-linecap="round" stroke-linejoin="round"/>
</g>
</svg>
