<svg width="192" height="36" viewBox="0 0 192 36" fill="none" xmlns="http://www.w3.org/2000/svg">
<path d="M20.3412 11.6378C20.3412 13.8274 20.3412 20.1209 20.3412 20.1209C20.3412 20.1209 14.2316 20.1209 11.6853 20.1209C6.9047 20.1209 3.0293 16.3229 3.0293 11.6378C3.0293 6.95278 6.9047 3.15479 11.6853 3.15479C16.4658 3.15479 20.3412 6.95278 20.3412 11.6378ZM7.35728 11.6378C7.35728 13.9804 9.29498 15.8794 11.6853 15.8794C12.9016 15.8794 16.0132 15.8794 16.0132 15.8794C16.0132 15.8794 16.0132 12.7883 16.0132 11.6378C16.0132 9.29532 14.0755 7.39632 11.6853 7.39632C9.29498 7.39632 7.35728 9.29532 7.35728 11.6378Z" fill="#64748B"/>
<path d="M11.6853 15.8796C13.9194 15.8796 20.3412 15.8796 20.3412 15.8796C20.3412 15.8796 20.3412 21.8671 20.3412 24.3626C20.3412 29.0477 16.4658 32.8457 11.6853 32.8457C6.9047 32.8457 3.0293 29.0477 3.0293 24.3626C3.0293 19.6776 6.9047 15.8796 11.6853 15.8796ZM11.6853 28.6042C14.0755 28.6042 16.0132 26.7052 16.0132 24.3626C16.0132 23.1706 16.0132 20.1211 16.0132 20.1211C16.0132 20.1211 12.8592 20.1211 11.6853 20.1211C9.29498 20.1211 7.35728 22.0201 7.35728 24.3626C7.35728 26.7052 9.29498 28.6042 11.6853 28.6042Z" fill="#64748B"/>
<path fill-rule="evenodd" clip-rule="evenodd" d="M16.0133 11.6378V20.1209H24.6692L24.6692 15.8794L20.3413 15.8794L20.3413 11.6378C20.3413 9.29532 22.279 7.39632 24.6692 7.39632C27.0595 7.39632 28.9972 9.29532 28.9972 11.6378L33.3252 11.6378C33.3252 6.95278 29.4498 3.15479 24.6692 3.15479C19.8887 3.15479 16.0133 6.95278 16.0133 11.6378Z" fill="#64748B"/>
<path d="M16.0133 24.3626C16.0133 22.1731 16.0133 15.8796 16.0133 15.8796C16.0133 15.8796 22.1229 15.8796 24.6692 15.8796C29.4498 15.8796 33.3252 19.6776 33.3252 24.3626C33.3252 29.0477 29.4498 32.8457 24.6692 32.8457C19.8887 32.8457 16.0133 29.0477 16.0133 24.3626ZM28.9972 24.3626C28.9972 22.0201 27.0595 20.1211 24.6692 20.1211C23.4529 20.1211 20.3413 20.1211 20.3413 20.1211C20.3413 20.1211 20.3413 23.2121 20.3413 24.3626C20.3413 26.7052 22.279 28.6042 24.6692 28.6042C27.0595 28.6042 28.9972 26.7052 28.9972 24.3626Z" fill="#64748B"/>
<path d="M47.8643 28.9485V7.35528H61.5275V10.1599H51.1886V16.7391H60.5485V19.5331H51.1886V28.9485H47.8643Z" fill="#0F172A"/>
<path d="M68.8956 29.307C67.8484 29.307 66.9017 29.1172 66.0553 28.7377C65.209 28.3511 64.5384 27.7923 64.0435 27.0612C63.5558 26.3302 63.3119 25.434 63.3119 24.3726C63.3119 23.4588 63.4912 22.7067 63.8498 22.1163C64.2085 21.5259 64.6926 21.0584 65.3022 20.714C65.9119 20.3696 66.5933 20.1095 67.3463 19.9338C68.0994 19.758 68.8669 19.6245 69.6487 19.5331C70.6384 19.4207 71.4417 19.3293 72.0586 19.259C72.6754 19.1817 73.1236 19.0587 73.4034 18.89C73.6831 18.7213 73.8229 18.4471 73.8229 18.0676V17.9938C73.8229 17.0729 73.5576 16.3595 73.0268 15.8534C72.5032 15.3473 71.7215 15.0943 70.6815 15.0943C69.5985 15.0943 68.7449 15.3297 68.121 15.8007C67.5041 16.2646 67.0774 16.7812 66.8407 17.3506L63.8176 16.6758C64.1762 15.6917 64.6998 14.8975 65.3883 14.293C66.084 13.6814 66.8837 13.2386 67.7874 12.9645C68.6912 12.6833 69.6415 12.5427 70.6384 12.5427C71.2983 12.5427 71.9976 12.62 72.7363 12.7747C73.4823 12.9223 74.178 13.1964 74.8235 13.5971C75.4762 13.9977 76.0105 14.5706 76.4265 15.3157C76.8425 16.0537 77.0505 17.0132 77.0505 18.1941V28.9485H73.909V26.7344H73.7799C73.5719 27.1421 73.2599 27.5427 72.8439 27.9363C72.4279 28.33 71.8936 28.6568 71.2409 28.9169C70.5882 29.177 69.8064 29.307 68.8956 29.307ZM69.5949 26.7766C70.4842 26.7766 71.2445 26.6043 71.8757 26.2599C72.514 25.9155 72.9981 25.4656 73.3281 24.9103C73.6652 24.348 73.8337 23.747 73.8337 23.1074V21.0198C73.7189 21.1322 73.4966 21.2377 73.1667 21.3361C72.8439 21.4274 72.4746 21.5083 72.0586 21.5786C71.6426 21.6418 71.2373 21.7016 70.8428 21.7578C70.4484 21.807 70.1184 21.8492 69.8531 21.8843C69.2291 21.9617 68.6589 22.0917 68.1425 22.2744C67.6332 22.4572 67.2244 22.7208 66.916 23.0652C66.6148 23.4026 66.4642 23.8525 66.4642 24.4148C66.4642 25.195 66.7582 25.7855 67.3463 26.1861C67.9345 26.5797 68.684 26.7766 69.5949 26.7766Z" fill="#0F172A"/>
<path d="M87.0839 29.2754C85.4845 29.2754 84.1074 28.9204 82.9527 28.2105C81.8051 27.4935 80.9229 26.5059 80.3061 25.2477C79.6893 23.9895 79.3809 22.5486 79.3809 20.9249C79.3809 19.2801 79.6965 17.8286 80.3276 16.5704C80.9588 15.3051 81.8482 14.3176 82.9957 13.6076C84.1433 12.8977 85.4953 12.5427 87.0517 12.5427C88.3068 12.5427 89.4257 12.7712 90.4083 13.2281C91.3909 13.6779 92.1835 14.3105 92.7859 15.1259C93.3956 15.9413 93.7578 16.8937 93.8725 17.9832H90.7418C90.5697 17.2241 90.1752 16.5704 89.5584 16.0221C88.9487 15.4738 88.1311 15.1997 87.1055 15.1997C86.2089 15.1997 85.4236 15.4317 84.7494 15.8956C84.0823 16.3525 83.5623 17.0062 83.1894 17.8567C82.8164 18.7002 82.6299 19.6983 82.6299 20.8511C82.6299 22.0319 82.8128 23.0512 83.1786 23.9087C83.5444 24.7662 84.0608 25.4305 84.7278 25.9014C85.402 26.3724 86.1946 26.6079 87.1055 26.6079C87.7151 26.6079 88.2674 26.4989 88.7623 26.281C89.2643 26.0561 89.6839 25.7363 90.021 25.3215C90.3653 24.9068 90.6056 24.4078 90.7418 23.8244H93.8725C93.7578 24.8717 93.4099 25.8065 92.829 26.6289C92.248 27.4513 91.4698 28.098 90.4944 28.569C89.5261 29.0399 88.3893 29.2754 87.0839 29.2754Z" fill="#0F172A"/>
<path d="M103.815 12.7536V15.2841H94.7882V12.7536H103.815ZM97.2089 8.87355H100.426V24.1934C100.426 24.8049 100.519 25.2653 100.705 25.5746C100.892 25.8768 101.132 26.0842 101.426 26.1967C101.727 26.3021 102.054 26.3548 102.405 26.3548C102.663 26.3548 102.889 26.3372 103.083 26.3021C103.277 26.2669 103.427 26.2388 103.535 26.2177L104.116 28.822C103.929 28.8923 103.664 28.9626 103.32 29.0329C102.975 29.1102 102.545 29.1524 102.029 29.1594C101.182 29.1735 100.393 29.0259 99.6618 28.7166C98.9302 28.4073 98.3385 27.9293 97.8866 27.2826C97.4348 26.636 97.2089 25.8241 97.2089 24.8471V8.87355Z" fill="#0F172A"/>
<path d="M112.944 29.2754C111.395 29.2754 110.043 28.9274 108.888 28.2316C107.734 27.5357 106.837 26.5622 106.199 25.311C105.56 24.0598 105.241 22.5978 105.241 20.9249C105.241 19.2449 105.56 17.7759 106.199 16.5177C106.837 15.2594 107.734 14.2824 108.888 13.5865C110.043 12.8907 111.395 12.5427 112.944 12.5427C114.494 12.5427 115.845 12.8907 117 13.5865C118.155 14.2824 119.052 15.2594 119.69 16.5177C120.328 17.7759 120.647 19.2449 120.647 20.9249C120.647 22.5978 120.328 24.0598 119.69 25.311C119.052 26.5622 118.155 27.5357 117 28.2316C115.845 28.9274 114.494 29.2754 112.944 29.2754ZM112.955 26.6289C113.959 26.6289 114.791 26.3689 115.451 25.8487C116.111 25.3286 116.599 24.6362 116.914 23.7716C117.237 22.9071 117.398 21.9546 117.398 20.9143C117.398 19.8811 117.237 18.9321 116.914 18.0676C116.599 17.196 116.111 16.4966 115.451 15.9694C114.791 15.4422 113.959 15.1786 112.955 15.1786C111.944 15.1786 111.105 15.4422 110.438 15.9694C109.778 16.4966 109.286 17.196 108.964 18.0676C108.648 18.9321 108.49 19.8811 108.49 20.9143C108.49 21.9546 108.648 22.9071 108.964 23.7716C109.286 24.6362 109.778 25.3286 110.438 25.8487C111.105 26.3689 111.944 26.6289 112.955 26.6289Z" fill="#0F172A"/>
<path d="M123.026 28.9485V12.7536H126.135V15.3262H126.308C126.609 14.4546 127.139 13.7693 127.9 13.2702C128.667 12.7641 129.535 12.5111 130.503 12.5111C130.704 12.5111 130.941 12.5181 131.213 12.5322C131.493 12.5462 131.712 12.5638 131.87 12.5849V15.6004C131.741 15.5652 131.511 15.5266 131.181 15.4844C130.851 15.4352 130.521 15.4106 130.191 15.4106C129.431 15.4106 128.753 15.5687 128.158 15.885C127.57 16.1943 127.104 16.6266 126.759 17.1819C126.415 17.7302 126.243 18.3557 126.243 19.0587V28.9485H123.026Z" fill="#0F172A"/>
<path d="M135.978 35.0216C135.497 35.0216 135.06 34.983 134.665 34.9057C134.271 34.8354 133.977 34.758 133.783 34.6737L134.558 32.0905C135.146 32.2452 135.669 32.3119 136.128 32.2908C136.588 32.2698 136.993 32.1011 137.344 31.7848C137.703 31.4685 138.018 30.9518 138.291 30.2348L138.689 29.1594L132.643 12.7536H136.085L140.271 25.3215H140.443L144.628 12.7536H148.081L141.271 31.11C140.955 31.9535 140.554 32.6669 140.066 33.2503C139.578 33.8408 138.997 34.2836 138.323 34.5788C137.649 34.874 136.867 35.0216 135.978 35.0216Z" fill="#0F172A"/>
<path d="M164.1 29.2438C162.558 29.2438 161.195 28.9837 160.012 28.4635C158.836 27.9434 157.914 27.2264 157.247 26.3126C156.58 25.3989 156.25 24.3586 156.257 23.1917C156.25 22.278 156.44 21.438 156.827 20.6718C157.222 19.8986 157.756 19.2555 158.43 18.7423C159.105 18.2222 159.858 17.8918 160.69 17.7513V17.6247C159.592 17.3647 158.714 16.7883 158.054 15.8956C157.394 15.0029 157.068 13.9766 157.075 12.8169C157.068 11.7133 157.365 10.7292 157.968 9.86465C158.577 8.99305 159.413 8.30772 160.475 7.80865C161.536 7.30959 162.745 7.06006 164.1 7.06006C165.441 7.06006 166.639 7.3131 167.694 7.8192C168.755 8.31826 169.591 9.00359 170.2 9.8752C170.81 10.7398 171.118 11.7203 171.125 12.8169C171.118 13.9766 170.781 15.0029 170.114 15.8956C169.447 16.7883 168.579 17.3647 167.511 17.6247V17.7513C168.335 17.8918 169.078 18.2222 169.738 18.7423C170.405 19.2555 170.935 19.8986 171.33 20.6718C171.732 21.438 171.936 22.278 171.943 23.1917C171.936 24.3586 171.599 25.3989 170.932 26.3126C170.265 27.2264 169.34 27.9434 168.156 28.4635C166.98 28.9837 165.628 29.2438 164.1 29.2438ZM164.1 26.5762C165.011 26.5762 165.8 26.4286 166.467 26.1334C167.134 25.8311 167.65 25.4129 168.016 24.8787C168.382 24.3375 168.569 23.7049 168.576 22.9809C168.569 22.2288 168.368 21.5645 167.973 20.9881C167.586 20.4117 167.059 19.9584 166.392 19.628C165.725 19.2976 164.961 19.1325 164.1 19.1325C163.232 19.1325 162.461 19.2976 161.787 19.628C161.113 19.9584 160.582 20.4117 160.195 20.9881C159.808 21.5645 159.617 22.2288 159.625 22.9809C159.617 23.7049 159.793 24.3375 160.152 24.8787C160.518 25.4129 161.038 25.8311 161.712 26.1334C162.386 26.4286 163.182 26.5762 164.1 26.5762ZM164.1 16.5282C164.832 16.5282 165.481 16.3841 166.047 16.0959C166.614 15.8077 167.059 15.4071 167.382 14.8939C167.711 14.3808 167.88 13.7798 167.887 13.091C167.88 12.4162 167.715 11.8258 167.392 11.3197C167.077 10.8136 166.636 10.4235 166.069 10.1493C165.502 9.86817 164.846 9.72758 164.1 9.72758C163.34 9.72758 162.673 9.86817 162.099 10.1493C161.533 10.4235 161.091 10.8136 160.776 11.3197C160.46 11.8258 160.306 12.4162 160.313 13.091C160.306 13.7798 160.464 14.3808 160.787 14.8939C161.109 15.4071 161.554 15.8077 162.121 16.0959C162.694 16.3841 163.354 16.5282 164.1 16.5282Z" fill="#0F172A"/>
<path d="M182.278 29.2438C181.295 29.2297 180.327 29.054 179.373 28.7166C178.426 28.3792 177.566 27.8169 176.791 27.0296C176.016 26.2423 175.396 25.1845 174.93 23.856C174.471 22.5275 174.241 20.8686 174.241 18.8794C174.241 16.9956 174.431 15.3227 174.811 13.8607C175.199 12.3986 175.755 11.165 176.479 10.1599C177.203 9.14769 178.078 8.37801 179.104 7.85083C180.13 7.32365 181.281 7.06006 182.558 7.06006C183.87 7.06006 185.036 7.3131 186.054 7.8192C187.073 8.32529 187.897 9.02468 188.528 9.91737C189.167 10.8101 189.572 11.8258 189.744 12.9645H186.463C186.241 12.0647 185.799 11.3302 185.14 10.7609C184.48 10.1915 183.619 9.90683 182.558 9.90683C180.944 9.90683 179.685 10.5957 178.781 11.9734C177.885 13.3511 177.433 15.2665 177.426 17.7196H177.587C177.967 17.1081 178.433 16.5879 178.986 16.1592C179.545 15.7234 180.169 15.3895 180.858 15.1575C181.553 14.9185 182.285 14.799 183.052 14.799C184.329 14.799 185.484 15.1048 186.517 15.7163C187.557 16.3208 188.385 17.1573 189.002 18.2257C189.619 19.2941 189.927 20.5172 189.927 21.8949C189.927 23.2726 189.608 24.5202 188.97 25.6378C188.338 26.7555 187.449 27.6411 186.301 28.2948C185.154 28.9415 183.813 29.2578 182.278 29.2438ZM182.267 26.5024C183.113 26.5024 183.87 26.2986 184.537 25.8909C185.204 25.4832 185.731 24.9349 186.119 24.2461C186.506 23.5572 186.7 22.7876 186.7 21.9371C186.7 21.1076 186.509 20.352 186.129 19.6702C185.756 18.9884 185.24 18.4471 184.58 18.0465C183.927 17.6458 183.182 17.4455 182.342 17.4455C181.704 17.4455 181.112 17.565 180.567 17.804C180.029 18.043 179.556 18.3733 179.147 18.7951C178.738 19.2168 178.416 19.7018 178.179 20.2501C177.949 20.7913 177.835 21.3642 177.835 21.9687C177.835 22.777 178.025 23.5256 178.405 24.2145C178.792 24.9033 179.319 25.4586 179.986 25.8804C180.66 26.2951 181.421 26.5024 182.267 26.5024Z" fill="#0F172A"/>
</svg>
